# xmcd CD database file
# Copyright (C) 1995-1998 Ti Kan
#
# Track frame offsets:
#	150
#	17194
#	38255
#	55070
#	70500
#	81962
#	98230
#	111022
#	126272
#	145601
#	157813
#	176510
#	194747
#	209054
#	228224
#	245682
#	258967
#
# Disc length: 3702 seconds
#
# Revision: 1
# Processed by: cddbd v1.4PL0 Copyright (c) Steve Scherf et al.
# Submitted via: CDex 1.30Release
#
DISCID=e10e7411
DTITLE=Swamp Things - In the Doghouse
DYEAR=2001
DGENRE=Blues
TTITLE0=Don't Let Me Down
TTITLE1=Frankie and Johnnie
TTITLE2=Florida 5-0
TTITLE3=She Ne Na Na Noo
TTITLE4=Wigglestick
TTITLE5=Don't You Lie To Me
TTITLE6=Rooster Booster
TTITLE7=Gambling Bar Blues
TTITLE8=Travelling Riverside Blues
TTITLE9=Montpellier Rag
TTITLE10=St James' Infirmary Blues
TTITLE11=You Know What I Like
TTITLE12=San Francisco Bay Blues
TTITLE13=It Hurts Me Too
TTITLE14=Alabama Train
TTITLE15=Off The Hook
TTITLE16=Baby Please Don't Go
EXTD=YEAR: 2001 ID3G:   0
EXTT0=
EXTT1=
EXTT2=
EXTT3=
EXTT4=
EXTT5=
EXTT6=
EXTT7=
EXTT8=
EXTT9=
EXTT10=
EXTT11=
EXTT12=
EXTT13=
EXTT14=
EXTT15=
EXTT16=
PLAYORDER=
